<svg width="20" height="12" viewBox="0 0 20 12" fill="#FFF" xmlns="http://www.w3.org/2000/svg">
    <path
        d="M0 2L20 2C20.2652 2 20.5196 1.89464 20.7071 1.70711C20.8946 1.51957 21 1.26522 21 1C21 0.734784 20.8946 0.480429 20.7071 0.292892C20.5196 0.105356 20.2652 0 20 0L0 0C-0.265216 0 -0.519571 0.105356 -0.707107 0.292892C-0.894643 0.480429 -1 0.734784 -1 1C-1 1.26522 -0.894643 1.51957 -0.707107 1.70711C-0.519571 1.89464 -0.265216 2 0 2ZM20 10L0 10C-0.265216 10 -0.519571 10.1054 -0.707107 10.2929C-0.894643 10.4804 -1 10.7348 -1 11C-1 11.2652 -0.894643 11.5196 -0.707107 11.7071C-0.519571 11.8946 -0.265216 12 0 12L20 12C20.2652 12 20.5196 11.8946 20.7071 11.7071C20.8946 11.5196 21 11.2652 21 11C21 10.7348 20.8946 10.4804 20.7071 10.2929C20.5196 10.1054 20.2652 10 20 10V10ZM0 7L20 7C20.2652 7 20.5196 6.89464 20.7071 6.70711C20.8946 6.51957 21 6.26522 21 6C21 5.73478 20.8946 5.48043 20.7071 5.29289C20.5196 5.10536 20.2652 5 20 5L0 5C-0.265216 5 -0.519571 5.10536 -0.707107 5.29289C-0.894643 5.48043 -1 5.73478 -1 6C-1 6.26522 -0.894643 6.51957 -0.707107 6.70711C-0.519571 6.89464 -0.265216 7 0 7Z"
        fill="#FFFFFF" />
</svg>