<?xml version="1.0" standalone="no"?>
<!DOCTYPE svg PUBLIC "-//W3C//DTD SVG 20010904//EN"
 "http://www.w3.org/TR/2001/REC-SVG-20010904/DTD/svg10.dtd">
<svg version="1.0" xmlns="http://www.w3.org/2000/svg"
    width="308.7612359841165"
    height="304.915625"
    viewBox="0 0 92.000000 92.000000"
    preserveAspectRatio="xMidYMid meet">

<g transform="translate(0.000000,92.000000) scale(0.100000,-0.100000)"
fill="#000000" stroke="none">
<path d="M597 846 c-51 -19 -72 -39 -103 -101 -21 -43 -24 -62 -20 -106 19
-193 16 -180 38 -168 14 8 23 8 31 0 24 -24 29 -9 5 17 -39 42 -48 66 -48 129
0 65 24 127 60 158 13 11 20 15 17 9 -4 -7 2 -33 14 -58 11 -25 17 -51 14 -56
-3 -6 1 -10 9 -10 32 0 23 -18 -15 -30 -37 -13 -41 -12 -55 8 -19 28 -37 19
-23 -11 11 -25 56 -31 77 -10 19 19 32 16 32 -7 0 -17 5 -19 25 -14 23 6 25 3
25 -26 0 -21 4 -29 12 -24 8 5 9 0 4 -17 -18 -60 -24 -93 -19 -106 3 -8 -7
-28 -23 -45 l-29 -31 30 20 c44 30 68 60 60 73 -6 9 -2 9 14 1 17 -9 20 -9 15
3 -3 8 1 25 10 38 9 12 16 18 16 13 0 -28 42 64 55 121 14 61 14 72 0 115 -35
104 -127 151 -228 115z m189 -242 c-5 -13 -10 -14 -18 -6 -6 6 -8 18 -4 28 5
13 10 14 18 6 6 -6 8 -18 4 -28z m-28 -32 c12 -2 22 -7 22 -12 0 -16 -19 -21
-40 -10 -15 8 -20 20 -19 48 1 36 2 36 8 7 4 -21 13 -31 29 -33z"/>
<path d="M263 813 c9 -2 25 -2 35 0 9 3 1 5 -18 5 -19 0 -27 -2 -17 -5z"/>
<path d="M28 733 c-26 -16 -27 -20 -26 -101 2 -106 16 -129 66 -111 28 10 33
16 29 35 -2 13 0 24 4 24 5 0 9 -10 9 -21 0 -17 4 -20 23 -15 12 3 28 6 35 6
17 0 16 84 -2 99 -17 14 -41 4 -96 -41 -35 -28 -60 -36 -60 -19 0 5 9 13 20
16 21 7 25 15 13 31 -5 5 -2 3 6 -6 13 -14 17 -13 36 5 12 11 29 25 38 30 15
9 14 13 -8 38 l-25 28 -34 -20 c-18 -12 -37 -21 -42 -21 -14 1 39 40 54 40 7
0 10 5 7 10 -8 13 -15 12 -47 -7z"/>
<path d="M351 443 l-31 -38 22 -17 c32 -24 48 -9 72 70 12 37 -28 27 -63 -15z"/>
<path d="M524 445 c-9 -21 -2 -26 13 -10 8 9 9 16 3 20 -6 3 -13 -1 -16 -10z"/>
<path d="M500 405 c0 -5 5 -17 10 -25 5 -8 10 -10 10 -5 0 6 -5 17 -10 25 -5
8 -10 11 -10 5z"/>
<path d="M196 358 c3 -5 10 -6 15 -3 13 9 11 12 -6 12 -8 0 -12 -4 -9 -9z"/>
<path d="M504 340 c0 -13 4 -16 10 -10 7 7 7 13 0 20 -6 6 -10 3 -10 -10z"/>
<path d="M280 340 c0 -5 5 -10 11 -10 5 0 7 5 4 10 -3 6 -8 10 -11 10 -2 0 -4
-4 -4 -10z"/>
<path d="M585 340 c-3 -5 1 -10 9 -10 8 0 18 5 21 10 3 6 -1 10 -9 10 -8 0
-18 -4 -21 -10z"/>
<path d="M528 314 c-39 -21 -35 -28 5 -8 37 19 44 24 31 24 -5 -1 -21 -8 -36
-16z"/>
<path d="M456 269 c-15 -12 -25 -23 -22 -26 2 -3 17 7 33 21 33 31 26 34 -11
5z"/>
<path d="M22 250 c-21 -9 -22 -14 -22 -130 l0 -120 116 0 116 0 -7 46 c-7 50
15 101 38 88 7 -4 9 -3 4 1 -4 5 0 17 10 27 26 29 7 21 -23 -9 -25 -27 -26
-24 -8 22 4 9 -1 17 -10 21 -9 3 -16 12 -16 20 0 8 -7 14 -16 14 -8 0 -13 3
-11 8 3 4 -9 7 -26 8 -18 0 -52 4 -77 7 -25 4 -55 2 -68 -3z"/>
<path d="M404 214 c-18 -14 -18 -15 4 -4 12 6 22 13 22 15 0 8 -5 6 -26 -11z"/>
<path d="M754 185 c3 -9 0 -15 -8 -15 -15 0 -26 -21 -26 -51 0 -12 -7 -19 -18
-19 -19 0 -42 -18 -42 -33 0 -4 5 -5 11 -2 6 4 17 -2 25 -14 12 -17 18 -19 39
-9 28 13 29 16 15 53 -8 22 -7 27 14 36 22 10 23 13 9 40 -15 30 -30 41 -19
14z"/>
<path d="M810 119 c7 -11 10 -21 8 -22 -33 -17 -44 -29 -46 -53 -2 -16 -9 -32
-15 -36 -7 -5 -3 -8 11 -8 13 0 21 4 17 9 -3 5 4 12 14 16 21 6 36 38 26 55
-3 5 -2 10 4 10 7 0 7 8 -1 25 -6 14 -15 25 -20 25 -5 0 -4 -9 2 -21z"/>
<path d="M262 60 c0 -14 2 -19 5 -12 2 6 2 18 0 25 -3 6 -5 1 -5 -13z"/>
<path d="M583 20 c-34 -14 -28 -20 17 -20 31 0 38 3 34 15 -7 17 -19 18 -51 5z"/>
<path d="M685 10 c-3 -5 1 -10 9 -10 9 0 16 5 16 10 0 6 -4 10 -9 10 -6 0 -13
-4 -16 -10z"/>
<path d="M528 3 c7 -3 16 -2 19 1 4 3 -2 6 -13 5 -11 0 -14 -3 -6 -6z"/>
</g>
</svg>
